<?xml version="1.0" standalone="no"?>
<!DOCTYPE svg PUBLIC "-//W3C//DTD SVG 20010904//EN"
 "http://www.w3.org/TR/2001/REC-SVG-20010904/DTD/svg10.dtd">
<svg version="1.0" xmlns="http://www.w3.org/2000/svg"
 width="500.000000pt" height="500.000000pt" viewBox="0 0 500.000000 500.000000"
 preserveAspectRatio="xMidYMid meet">

<g transform="translate(0.000000,500.000000) scale(0.100000,-0.100000)"
fill="#fde047" stroke="none">
<path d="M1058 4067 c512 -512 932 -937 932 -942 0 -13 -102 -115 -115 -115
-6 0 -430 420 -942 932 l-933 933 0 -306 0 -306 273 -244 c149 -134 443 -396
652 -583 209 -187 445 -399 525 -471 80 -72 207 -186 283 -254 l139 -124 22
24 c18 18 350 392 469 526 l20 22 -33 38 c-18 21 -124 139 -235 263 -111 124
-360 403 -555 620 -194 217 -459 513 -588 658 l-235 262 -306 0 -306 0 933
-933z"/>
<path d="M4028 4738 c-129 -145 -394 -441 -588 -658 -326 -364 -551 -616 -900
-1005 -728 -812 -1115 -1248 -1118 -1258 -1 -7 27 -41 63 -77 l65 -65 660 660
660 660 62 -63 63 -62 -660 -660 -660 -660 65 -65 c36 -36 70 -64 77 -63 10 3
446 390 1258 1118 389 349 641 574 1005 900 217 194 513 459 658 588 l262 235
0 306 0 306 -933 -933 c-512 -512 -937 -932 -942 -932 -13 0 -115 102 -115
115 0 6 420 430 932 942 l933 933 -306 0 -306 0 -235 -262z"/>
<path d="M2140 4929 c-36 -15 -69 -30 -74 -32 -8 -3 107 -292 123 -310 4 -4
41 7 83 24 l76 31 -60 146 c-33 81 -62 153 -65 160 -6 15 -5 16 -83 -19z"/>
<path d="M2777 4948 c-3 -7 -32 -79 -65 -160 l-60 -146 76 -31 c42 -17 79 -28
83 -24 10 11 131 304 127 308 -2 2 -32 15 -68 30 -36 15 -70 29 -76 31 -6 3
-14 -1 -17 -8z"/>
<path d="M1623 4415 c-17 -41 -27 -78 -22 -81 31 -19 295 -124 304 -120 11 4
71 144 64 150 -6 5 -303 126 -309 126 -3 0 -20 -34 -37 -75z"/>
<path d="M3180 4428 c-80 -34 -147 -63 -149 -64 -7 -6 53 -146 64 -150 9 -4
273 101 304 120 11 7 -50 156 -64 155 -5 0 -75 -28 -155 -61z"/>
<path d="M2377 4231 l-119 -179 118 -176 c64 -97 120 -176 124 -176 4 0 60 79
124 176 l118 176 -119 179 c-65 98 -120 179 -123 179 -3 0 -58 -81 -123 -179z"/>
<path d="M3022 2262 l-83 -77 255 -255 256 -255 65 65 c36 36 64 70 63 77 -4
14 -458 523 -467 523 -3 -1 -43 -35 -89 -78z"/>
<path d="M2720 1991 c-73 -68 -83 -80 -72 -94 25 -30 523 -472 535 -475 7 -1
41 27 77 63 l65 65 -260 260 -260 259 -85 -78z"/>
<path d="M960 1875 l-65 -65 458 -457 457 -458 65 65 c36 35 65 69 65 75 0 13
-892 905 -905 905 -6 0 -40 -29 -75 -65z"/>
<path d="M3507 1492 c-246 -246 -447 -452 -447 -457 0 -6 29 -40 65 -75 l65
-65 457 458 458 457 -65 65 c-35 36 -69 65 -75 65 -5 0 -211 -201 -458 -448z"/>
<path d="M880 1445 l-65 -65 283 -283 282 -282 67 68 68 67 -280 280 c-154
154 -282 280 -285 280 -3 0 -35 -29 -70 -65z"/>
<path d="M3765 1230 l-280 -280 68 -67 67 -68 282 282 283 283 -65 65 c-35 36
-67 65 -70 65 -3 0 -131 -126 -285 -280z"/>
<path d="M647 822 c-114 -114 -207 -212 -207 -217 0 -13 152 -165 165 -165 6
0 105 94 220 210 l210 210 -85 85 c-46 47 -87 85 -90 85 -3 0 -99 -93 -213
-208z"/>
<path d="M4050 945 l-85 -85 210 -210 c115 -116 214 -210 220 -210 13 0 165
152 165 165 0 10 -411 425 -420 425 -3 0 -44 -38 -90 -85z"/>
<path d="M17 582 c-11 -12 -17 -36 -17 -68 l0 -49 233 -233 232 -232 51 0 c66
0 84 19 84 88 l0 51 -231 230 -230 231 -53 0 c-39 0 -57 -5 -69 -18z"/>
<path d="M4628 368 l-228 -229 0 -53 c0 -68 18 -86 86 -86 l49 0 233 233 232
232 0 51 c0 68 -18 84 -91 83 l-54 -1 -227 -230z"/>
<path d="M2070 430 l0 -91 83 3 82 3 3 88 3 87 -86 0 -85 0 0 -90z"/>
<path d="M2414 507 c-3 -8 -4 -47 -2 -88 l3 -74 85 0 85 0 0 85 0 85 -83 3
c-63 2 -84 0 -88 -11z"/>
<path d="M2762 433 l3 -88 83 -3 82 -3 0 91 0 90 -85 0 -86 0 3 -87z"/>
</g>
</svg>
