<svg xmlns="http://www.w3.org/2000/svg" xmlns:xlink="http://www.w3.org/1999/xlink" width="1920" zoomAndPan="magnify" viewBox="0 0 1440 809.999993" height="1080" preserveAspectRatio="xMidYMid meet" version="1.0"><defs><g/><clipPath id="b4404c7f10"><path d="M 0 0 L 47.25 0 L 47.25 45 L 0 45 Z M 0 0 " clip-rule="nonzero"/></clipPath><clipPath id="8ad24132ea"><path d="M 1392.738281 764.992188 L 1439.988281 764.992188 L 1439.988281 809.992188 L 1392.738281 809.992188 Z M 1392.738281 764.992188 " clip-rule="nonzero"/></clipPath><clipPath id="130bb00468"><path d="M 2 761 L 51 761 L 51 807 L 2 807 Z M 2 761 " clip-rule="nonzero"/></clipPath><clipPath id="1b3ff7760a"><path d="M 42.878906 756.707031 L 57.125 801.757812 L 14.222656 815.328125 L -0.0273438 770.277344 Z M 42.878906 756.707031 " clip-rule="nonzero"/></clipPath><clipPath id="36a4729a13"><path d="M 1388 0 L 1437 0 L 1437 45 L 1388 45 Z M 1388 0 " clip-rule="nonzero"/></clipPath><clipPath id="1cd8decf4e"><path d="M 1429.53125 -5.398438 L 1442.773438 39.960938 L 1399.574219 52.570312 L 1386.332031 7.214844 Z M 1429.53125 -5.398438 " clip-rule="nonzero"/></clipPath></defs><path stroke-linecap="butt" transform="matrix(0.749242, 0, 0, 0.75, 54.848991, 17.418187)" fill="none" stroke-linejoin="miter" d="M -0.00178208 1.999709 L 170.180525 1.999709 " stroke="#fde047" stroke-width="4" stroke-opacity="1" stroke-miterlimit="4"/><g clip-path="url(#b4404c7f10)"><path fill="#fde047" d="M 23.625 0 L 29.203125 17.1875 L 47.25 17.1875 L 32.648438 27.8125 L 38.226562 45 L 23.625 34.375 L 9.023438 45 L 14.601562 27.8125 L 0 17.1875 L 18.046875 17.1875 L 23.625 0 " fill-opacity="1" fill-rule="nonzero"/></g><path stroke-linecap="butt" transform="matrix(0.000000000000000046, 0.749242, -0.75, 0.000000000000000046, 26.779068, 49.075602)" fill="none" stroke-linejoin="miter" d="M -0.00184557 2.002299 L 170.180461 2.002299 " stroke="#fde047" stroke-width="4" stroke-opacity="1" stroke-miterlimit="4"/><path stroke-linecap="butt" transform="matrix(-0.749242, -0.000000000000000092, 0.000000000000000092, -0.75, 1385.143065, 792.581812)" fill="none" stroke-linejoin="miter" d="M -0.00195759 1.999708 L 170.180349 1.999708 " stroke="#fde047" stroke-width="4" stroke-opacity="1" stroke-miterlimit="4"/><g clip-path="url(#8ad24132ea)"><path fill="#fde047" d="M 1416.363281 809.992188 L 1410.785156 792.804688 L 1392.738281 792.804688 L 1407.339844 782.179688 L 1401.761719 764.992188 L 1416.363281 775.617188 L 1430.964844 764.992188 L 1425.386719 782.179688 L 1439.988281 792.804688 L 1421.941406 792.804688 L 1416.363281 809.992188 " fill-opacity="1" fill-rule="nonzero"/></g><path stroke-linecap="butt" transform="matrix(0.000000000000000046, -0.749242, 0.75, 0.000000000000000046, 1413.212983, 760.924374)" fill="none" stroke-linejoin="miter" d="M -0.00187861 2.002481 L 170.180428 2.002481 " stroke="#fde047" stroke-width="4" stroke-opacity="1" stroke-miterlimit="4"/><path stroke-linecap="butt" transform="matrix(0.000000000000000046, -0.749242, 0.75, 0.000000000000000046, 23.191572, 755.147094)" fill="none" stroke-linejoin="miter" d="M -0.00179313 1.999778 L 170.180513 1.999778 " stroke="#fde047" stroke-width="4" stroke-opacity="1" stroke-miterlimit="4"/><g clip-path="url(#130bb00468)"><g clip-path="url(#1b3ff7760a)"><path fill="#fde047" d="M 50.003906 779.234375 L 35.296875 789.734375 L 40.738281 806.941406 L 26.207031 796.222656 L 11.5 806.722656 L 17.226562 789.597656 L 2.695312 778.878906 L 20.765625 779.015625 L 26.492188 761.890625 L 31.933594 779.097656 L 50.003906 779.234375 " fill-opacity="1" fill-rule="nonzero"/></g></g><path stroke-linecap="butt" transform="matrix(0.749242, 0, 0, 0.75, 56.348991, 780.216965)" fill="none" stroke-linejoin="miter" d="M -0.00178198 2.00238 L 170.180525 2.00238 " stroke="#fde047" stroke-width="4" stroke-opacity="1" stroke-miterlimit="4"/><path stroke-linecap="butt" transform="matrix(0.000000000000000046, 0.749242, -0.75, 0.000000000000000046, 1415.189119, 49.075602)" fill="none" stroke-linejoin="miter" d="M -0.00184557 2.002159 L 170.180461 2.002159 " stroke="#fde047" stroke-width="4" stroke-opacity="1" stroke-miterlimit="4"/><g clip-path="url(#36a4729a13)"><g clip-path="url(#1cd8decf4e)"><path fill="#fde047" d="M 1436.148438 17.28125 L 1421.214844 27.453125 L 1426.273438 44.777344 L 1411.984375 33.738281 L 1397.046875 43.90625 L 1403.152344 26.914062 L 1388.863281 15.875 L 1406.925781 16.414062 L 1413.03125 -0.578125 L 1418.085938 16.746094 L 1436.148438 17.28125 " fill-opacity="1" fill-rule="nonzero"/></g></g><path stroke-linecap="butt" transform="matrix(-0.749242, -0.000000000000000092, 0.000000000000000092, -0.75, 1383.643065, 20.033015)" fill="none" stroke-linejoin="miter" d="M -0.00195749 2.002354 L 170.180349 2.002354 " stroke="#fde047" stroke-width="4" stroke-opacity="1" stroke-miterlimit="4"/><g fill="#fde047" fill-opacity="1"><g transform="translate(674.107011, 26.572031)"><g><path d="M 12.882812 12.074219 C 12.882812 12.074219 12.882812 11.269531 12.882812 11.269531 C 12.882812 11.269531 8.054688 6.441406 8.054688 6.441406 C 8.054688 6.441406 8.054688 7.246094 8.054688 7.246094 C 8.054688 7.246094 12.882812 12.074219 12.882812 12.074219 Z M 12.882812 8.054688 C 12.882812 8.054688 12.882812 5.632812 12.882812 5.632812 C 12.882812 5.632812 8.054688 0.796875 8.054688 0.796875 C 8.054688 0.796875 8.054688 3.214844 8.054688 3.214844 C 8.054688 3.214844 12.882812 8.054688 12.882812 8.054688 Z M 12.882812 3.214844 C 12.882812 3.214844 12.882812 0 12.882812 0 C 12.882812 0 8.054688 -4.828125 8.054688 -4.828125 C 8.054688 -4.828125 8.054688 -1.601562 8.054688 -1.601562 C 8.054688 -1.601562 12.882812 3.214844 12.882812 3.214844 Z M 12.882812 -0.796875 C 12.882812 -0.796875 12.882812 -11.269531 12.882812 -11.269531 C 12.882812 -11.269531 16.105469 -11.269531 16.105469 -11.269531 C 16.105469 -11.269531 20.933594 -16.105469 20.933594 -16.105469 C 20.933594 -16.105469 0 -16.105469 0 -16.105469 C 0 -16.105469 0 -11.269531 0 -11.269531 C 0 -11.269531 8.054688 -11.269531 8.054688 -11.269531 C 8.054688 -11.269531 8.054688 -5.632812 8.054688 -5.632812 C 8.054688 -5.632812 12.882812 -0.796875 12.882812 -0.796875 Z M 12.882812 -0.796875 "/></g></g></g><g fill="#fde047" fill-opacity="1"><g transform="translate(695.84219, 26.572031)"><g><path d="M 4.828125 3.214844 C 4.828125 3.214844 4.828125 0 4.828125 0 C 4.828125 0 0 -4.828125 0 -4.828125 C 0 -4.828125 0 -1.601562 0 -1.601562 C 0 -1.601562 4.828125 3.214844 4.828125 3.214844 Z M 20.933594 0 C 20.933594 0 20.933594 -10.460938 20.933594 -10.460938 C 20.933594 -10.460938 16.105469 -15.300781 16.105469 -15.300781 C 16.105469 -15.300781 16.105469 -10.460938 16.105469 -10.460938 C 16.105469 -10.460938 10.460938 -10.460938 10.460938 -10.460938 C 10.460938 -10.460938 5.632812 -5.632812 5.632812 -5.632812 C 5.632812 -5.632812 16.105469 -5.632812 16.105469 -5.632812 C 16.105469 -5.632812 16.105469 0 16.105469 0 C 16.105469 0 20.933594 0 20.933594 0 Z M 4.828125 -0.796875 C 4.828125 -0.796875 4.828125 -16.105469 4.828125 -16.105469 C 4.828125 -16.105469 0 -16.105469 0 -16.105469 C 0 -16.105469 0 -5.632812 0 -5.632812 C 0 -5.632812 4.828125 -0.796875 4.828125 -0.796875 Z M 20.933594 -11.269531 C 20.933594 -11.269531 20.933594 -14.492188 20.933594 -14.492188 C 20.933594 -14.492188 16.105469 -19.332031 16.105469 -19.332031 C 16.105469 -19.332031 16.105469 -16.105469 16.105469 -16.105469 C 16.105469 -16.105469 20.933594 -11.269531 20.933594 -11.269531 Z M 20.933594 -11.269531 "/></g></g></g><g fill="#fde047" fill-opacity="1"><g transform="translate(719.189567, 26.572031)"><g><path d="M 20.933594 3.214844 C 20.933594 3.214844 20.933594 0 20.933594 0 C 20.933594 0 16.105469 -4.828125 16.105469 -4.828125 C 16.105469 -4.828125 16.105469 -1.601562 16.105469 -1.601562 C 16.105469 -1.601562 20.933594 3.214844 20.933594 3.214844 Z M 4.828125 0 C 4.828125 0 4.828125 -5.632812 4.828125 -5.632812 C 4.828125 -5.632812 15.300781 -5.632812 15.300781 -5.632812 C 15.300781 -5.632812 10.460938 -10.460938 10.460938 -10.460938 C 10.460938 -10.460938 0 -10.460938 0 -10.460938 C 0 -10.460938 0 0 0 0 C 0 0 4.828125 0 4.828125 0 Z M 20.933594 -0.796875 C 20.933594 -0.796875 20.933594 -16.105469 20.933594 -16.105469 C 20.933594 -16.105469 0 -16.105469 0 -16.105469 C 0 -16.105469 4.828125 -11.269531 4.828125 -11.269531 C 4.828125 -11.269531 16.105469 -11.269531 16.105469 -11.269531 C 16.105469 -11.269531 16.105469 -5.632812 16.105469 -5.632812 C 16.105469 -5.632812 20.933594 -0.796875 20.933594 -0.796875 Z M 20.933594 -0.796875 "/></g></g></g><g fill="#fde047" fill-opacity="1"><g transform="translate(742.536943, 26.572031)"><g><path d="M 4.828125 3.214844 C 4.828125 3.214844 4.828125 0 4.828125 0 C 4.828125 0 0 -4.828125 0 -4.828125 C 0 -4.828125 0 -1.601562 0 -1.601562 C 0 -1.601562 4.828125 3.214844 4.828125 3.214844 Z M 4.828125 -0.796875 C 4.828125 -0.796875 4.828125 -10.460938 4.828125 -10.460938 C 4.828125 -10.460938 0 -10.460938 0 -10.460938 C 0 -10.460938 0 -5.632812 0 -5.632812 C 0 -5.632812 4.828125 -0.796875 4.828125 -0.796875 Z M 20.933594 0 C 20.933594 0 15.300781 -5.632812 15.300781 -5.632812 C 15.300781 -5.632812 20.933594 -5.632812 20.933594 -5.632812 C 20.933594 -5.632812 20.933594 -16.105469 20.933594 -16.105469 C 20.933594 -16.105469 0 -16.105469 0 -16.105469 C 0 -16.105469 4.828125 -11.269531 4.828125 -11.269531 C 4.828125 -11.269531 16.105469 -11.269531 16.105469 -11.269531 C 16.105469 -11.269531 16.105469 -10.460938 16.105469 -10.460938 C 16.105469 -10.460938 9.664062 -10.460938 9.664062 -10.460938 C 9.664062 -10.460938 4.828125 -5.632812 4.828125 -5.632812 C 4.828125 -5.632812 8.859375 -5.632812 8.859375 -5.632812 C 8.859375 -5.632812 14.492188 0 14.492188 0 C 14.492188 0 20.933594 0 20.933594 0 Z M 20.933594 0 "/></g></g></g><g fill="#fde047" fill-opacity="1"><g transform="translate(674.107011, 795.956812)"><g><path d="M 12.882812 12.074219 C 12.882812 12.074219 12.882812 11.269531 12.882812 11.269531 C 12.882812 11.269531 8.054688 6.441406 8.054688 6.441406 C 8.054688 6.441406 8.054688 7.246094 8.054688 7.246094 C 8.054688 7.246094 12.882812 12.074219 12.882812 12.074219 Z M 12.882812 8.054688 C 12.882812 8.054688 12.882812 5.632812 12.882812 5.632812 C 12.882812 5.632812 8.054688 0.796875 8.054688 0.796875 C 8.054688 0.796875 8.054688 3.214844 8.054688 3.214844 C 8.054688 3.214844 12.882812 8.054688 12.882812 8.054688 Z M 12.882812 3.214844 C 12.882812 3.214844 12.882812 0 12.882812 0 C 12.882812 0 8.054688 -4.828125 8.054688 -4.828125 C 8.054688 -4.828125 8.054688 -1.601562 8.054688 -1.601562 C 8.054688 -1.601562 12.882812 3.214844 12.882812 3.214844 Z M 12.882812 -0.796875 C 12.882812 -0.796875 12.882812 -11.269531 12.882812 -11.269531 C 12.882812 -11.269531 16.105469 -11.269531 16.105469 -11.269531 C 16.105469 -11.269531 20.933594 -16.105469 20.933594 -16.105469 C 20.933594 -16.105469 0 -16.105469 0 -16.105469 C 0 -16.105469 0 -11.269531 0 -11.269531 C 0 -11.269531 8.054688 -11.269531 8.054688 -11.269531 C 8.054688 -11.269531 8.054688 -5.632812 8.054688 -5.632812 C 8.054688 -5.632812 12.882812 -0.796875 12.882812 -0.796875 Z M 12.882812 -0.796875 "/></g></g></g><g fill="#fde047" fill-opacity="1"><g transform="translate(695.84219, 795.956812)"><g><path d="M 4.828125 3.214844 C 4.828125 3.214844 4.828125 0 4.828125 0 C 4.828125 0 0 -4.828125 0 -4.828125 C 0 -4.828125 0 -1.601562 0 -1.601562 C 0 -1.601562 4.828125 3.214844 4.828125 3.214844 Z M 20.933594 0 C 20.933594 0 20.933594 -10.460938 20.933594 -10.460938 C 20.933594 -10.460938 16.105469 -15.300781 16.105469 -15.300781 C 16.105469 -15.300781 16.105469 -10.460938 16.105469 -10.460938 C 16.105469 -10.460938 10.460938 -10.460938 10.460938 -10.460938 C 10.460938 -10.460938 5.632812 -5.632812 5.632812 -5.632812 C 5.632812 -5.632812 16.105469 -5.632812 16.105469 -5.632812 C 16.105469 -5.632812 16.105469 0 16.105469 0 C 16.105469 0 20.933594 0 20.933594 0 Z M 4.828125 -0.796875 C 4.828125 -0.796875 4.828125 -16.105469 4.828125 -16.105469 C 4.828125 -16.105469 0 -16.105469 0 -16.105469 C 0 -16.105469 0 -5.632812 0 -5.632812 C 0 -5.632812 4.828125 -0.796875 4.828125 -0.796875 Z M 20.933594 -11.269531 C 20.933594 -11.269531 20.933594 -14.492188 20.933594 -14.492188 C 20.933594 -14.492188 16.105469 -19.332031 16.105469 -19.332031 C 16.105469 -19.332031 16.105469 -16.105469 16.105469 -16.105469 C 16.105469 -16.105469 20.933594 -11.269531 20.933594 -11.269531 Z M 20.933594 -11.269531 "/></g></g></g><g fill="#fde047" fill-opacity="1"><g transform="translate(719.189567, 795.956812)"><g><path d="M 20.933594 3.214844 C 20.933594 3.214844 20.933594 0 20.933594 0 C 20.933594 0 16.105469 -4.828125 16.105469 -4.828125 C 16.105469 -4.828125 16.105469 -1.601562 16.105469 -1.601562 C 16.105469 -1.601562 20.933594 3.214844 20.933594 3.214844 Z M 4.828125 0 C 4.828125 0 4.828125 -5.632812 4.828125 -5.632812 C 4.828125 -5.632812 15.300781 -5.632812 15.300781 -5.632812 C 15.300781 -5.632812 10.460938 -10.460938 10.460938 -10.460938 C 10.460938 -10.460938 0 -10.460938 0 -10.460938 C 0 -10.460938 0 0 0 0 C 0 0 4.828125 0 4.828125 0 Z M 20.933594 -0.796875 C 20.933594 -0.796875 20.933594 -16.105469 20.933594 -16.105469 C 20.933594 -16.105469 0 -16.105469 0 -16.105469 C 0 -16.105469 4.828125 -11.269531 4.828125 -11.269531 C 4.828125 -11.269531 16.105469 -11.269531 16.105469 -11.269531 C 16.105469 -11.269531 16.105469 -5.632812 16.105469 -5.632812 C 16.105469 -5.632812 20.933594 -0.796875 20.933594 -0.796875 Z M 20.933594 -0.796875 "/></g></g></g><g fill="#fde047" fill-opacity="1"><g transform="translate(742.536943, 795.956812)"><g><path d="M 4.828125 3.214844 C 4.828125 3.214844 4.828125 0 4.828125 0 C 4.828125 0 0 -4.828125 0 -4.828125 C 0 -4.828125 0 -1.601562 0 -1.601562 C 0 -1.601562 4.828125 3.214844 4.828125 3.214844 Z M 4.828125 -0.796875 C 4.828125 -0.796875 4.828125 -10.460938 4.828125 -10.460938 C 4.828125 -10.460938 0 -10.460938 0 -10.460938 C 0 -10.460938 0 -5.632812 0 -5.632812 C 0 -5.632812 4.828125 -0.796875 4.828125 -0.796875 Z M 20.933594 0 C 20.933594 0 15.300781 -5.632812 15.300781 -5.632812 C 15.300781 -5.632812 20.933594 -5.632812 20.933594 -5.632812 C 20.933594 -5.632812 20.933594 -16.105469 20.933594 -16.105469 C 20.933594 -16.105469 0 -16.105469 0 -16.105469 C 0 -16.105469 4.828125 -11.269531 4.828125 -11.269531 C 4.828125 -11.269531 16.105469 -11.269531 16.105469 -11.269531 C 16.105469 -11.269531 16.105469 -10.460938 16.105469 -10.460938 C 16.105469 -10.460938 9.664062 -10.460938 9.664062 -10.460938 C 9.664062 -10.460938 4.828125 -5.632812 4.828125 -5.632812 C 4.828125 -5.632812 8.859375 -5.632812 8.859375 -5.632812 C 8.859375 -5.632812 14.492188 0 14.492188 0 C 14.492188 0 20.933594 0 20.933594 0 Z M 20.933594 0 "/></g></g></g><g fill="#fde047" fill-opacity="1"><g transform="translate(1404.312824, 359.106388)"><g><path d="M -12.074219 12.882812 C -12.074219 12.882812 -11.269531 12.882812 -11.269531 12.882812 C -11.269531 12.882812 -6.441406 8.054688 -6.441406 8.054688 C -6.441406 8.054688 -7.246094 8.054688 -7.246094 8.054688 C -7.246094 8.054688 -12.074219 12.882812 -12.074219 12.882812 Z M -8.054688 12.882812 C -8.054688 12.882812 -5.632812 12.882812 -5.632812 12.882812 C -5.632812 12.882812 -0.796875 8.054688 -0.796875 8.054688 C -0.796875 8.054688 -3.214844 8.054688 -3.214844 8.054688 C -3.214844 8.054688 -8.054688 12.882812 -8.054688 12.882812 Z M -3.214844 12.882812 C -3.214844 12.882812 0 12.882812 0 12.882812 C 0 12.882812 4.828125 8.054688 4.828125 8.054688 C 4.828125 8.054688 1.601562 8.054688 1.601562 8.054688 C 1.601562 8.054688 -3.214844 12.882812 -3.214844 12.882812 Z M 0.796875 12.882812 C 0.796875 12.882812 11.269531 12.882812 11.269531 12.882812 C 11.269531 12.882812 11.269531 16.105469 11.269531 16.105469 C 11.269531 16.105469 16.105469 20.933594 16.105469 20.933594 C 16.105469 20.933594 16.105469 0 16.105469 0 C 16.105469 0 11.269531 0 11.269531 0 C 11.269531 0 11.269531 8.054688 11.269531 8.054688 C 11.269531 8.054688 5.632812 8.054688 5.632812 8.054688 C 5.632812 8.054688 0.796875 12.882812 0.796875 12.882812 Z M 0.796875 12.882812 "/></g></g></g><g fill="#fde047" fill-opacity="1"><g transform="translate(1404.312824, 380.841567)"><g><path d="M -3.214844 4.828125 C -3.214844 4.828125 0 4.828125 0 4.828125 C 0 4.828125 4.828125 0 4.828125 0 C 4.828125 0 1.601562 0 1.601562 0 C 1.601562 0 -3.214844 4.828125 -3.214844 4.828125 Z M 0 20.933594 C 0 20.933594 10.460938 20.933594 10.460938 20.933594 C 10.460938 20.933594 15.300781 16.105469 15.300781 16.105469 C 15.300781 16.105469 10.460938 16.105469 10.460938 16.105469 C 10.460938 16.105469 10.460938 10.460938 10.460938 10.460938 C 10.460938 10.460938 5.632812 5.632812 5.632812 5.632812 C 5.632812 5.632812 5.632812 16.105469 5.632812 16.105469 C 5.632812 16.105469 0 16.105469 0 16.105469 C 0 16.105469 0 20.933594 0 20.933594 Z M 0.796875 4.828125 C 0.796875 4.828125 16.105469 4.828125 16.105469 4.828125 C 16.105469 4.828125 16.105469 0 16.105469 0 C 16.105469 0 5.632812 0 5.632812 0 C 5.632812 0 0.796875 4.828125 0.796875 4.828125 Z M 11.269531 20.933594 C 11.269531 20.933594 14.492188 20.933594 14.492188 20.933594 C 14.492188 20.933594 19.332031 16.105469 19.332031 16.105469 C 19.332031 16.105469 16.105469 16.105469 16.105469 16.105469 C 16.105469 16.105469 11.269531 20.933594 11.269531 20.933594 Z M 11.269531 20.933594 "/></g></g></g><g fill="#fde047" fill-opacity="1"><g transform="translate(1404.312824, 404.188943)"><g><path d="M -3.214844 20.933594 C -3.214844 20.933594 0 20.933594 0 20.933594 C 0 20.933594 4.828125 16.105469 4.828125 16.105469 C 4.828125 16.105469 1.601562 16.105469 1.601562 16.105469 C 1.601562 16.105469 -3.214844 20.933594 -3.214844 20.933594 Z M 0 4.828125 C 0 4.828125 5.632812 4.828125 5.632812 4.828125 C 5.632812 4.828125 5.632812 15.300781 5.632812 15.300781 C 5.632812 15.300781 10.460938 10.460938 10.460938 10.460938 C 10.460938 10.460938 10.460938 0 10.460938 0 C 10.460938 0 0 0 0 0 C 0 0 0 4.828125 0 4.828125 Z M 0.796875 20.933594 C 0.796875 20.933594 16.105469 20.933594 16.105469 20.933594 C 16.105469 20.933594 16.105469 0 16.105469 0 C 16.105469 0 11.269531 4.828125 11.269531 4.828125 C 11.269531 4.828125 11.269531 16.105469 11.269531 16.105469 C 11.269531 16.105469 5.632812 16.105469 5.632812 16.105469 C 5.632812 16.105469 0.796875 20.933594 0.796875 20.933594 Z M 0.796875 20.933594 "/></g></g></g><g fill="#fde047" fill-opacity="1"><g transform="translate(1404.312824, 427.53632)"><g><path d="M -3.214844 4.828125 C -3.214844 4.828125 0 4.828125 0 4.828125 C 0 4.828125 4.828125 0 4.828125 0 C 4.828125 0 1.601562 0 1.601562 0 C 1.601562 0 -3.214844 4.828125 -3.214844 4.828125 Z M 0.796875 4.828125 C 0.796875 4.828125 10.460938 4.828125 10.460938 4.828125 C 10.460938 4.828125 10.460938 0 10.460938 0 C 10.460938 0 5.632812 0 5.632812 0 C 5.632812 0 0.796875 4.828125 0.796875 4.828125 Z M 0 20.933594 C 0 20.933594 5.632812 15.300781 5.632812 15.300781 C 5.632812 15.300781 5.632812 20.933594 5.632812 20.933594 C 5.632812 20.933594 16.105469 20.933594 16.105469 20.933594 C 16.105469 20.933594 16.105469 0 16.105469 0 C 16.105469 0 11.269531 4.828125 11.269531 4.828125 C 11.269531 4.828125 11.269531 16.105469 11.269531 16.105469 C 11.269531 16.105469 10.460938 16.105469 10.460938 16.105469 C 10.460938 16.105469 10.460938 9.664062 10.460938 9.664062 C 10.460938 9.664062 5.632812 4.828125 5.632812 4.828125 C 5.632812 4.828125 5.632812 8.859375 5.632812 8.859375 C 5.632812 8.859375 0 14.492188 0 14.492188 C 0 14.492188 0 20.933594 0 20.933594 Z M 0 20.933594 "/></g></g></g><g fill="#fde047" fill-opacity="1"><g transform="translate(32.571167, 450.887607)"><g><path d="M 12.074219 -12.882812 C 12.074219 -12.882812 11.269531 -12.882812 11.269531 -12.882812 C 11.269531 -12.882812 6.441406 -8.054688 6.441406 -8.054688 C 6.441406 -8.054688 7.246094 -8.054688 7.246094 -8.054688 C 7.246094 -8.054688 12.074219 -12.882812 12.074219 -12.882812 Z M 8.054688 -12.882812 C 8.054688 -12.882812 5.632812 -12.882812 5.632812 -12.882812 C 5.632812 -12.882812 0.796875 -8.054688 0.796875 -8.054688 C 0.796875 -8.054688 3.214844 -8.054688 3.214844 -8.054688 C 3.214844 -8.054688 8.054688 -12.882812 8.054688 -12.882812 Z M 3.214844 -12.882812 C 3.214844 -12.882812 0 -12.882812 0 -12.882812 C 0 -12.882812 -4.828125 -8.054688 -4.828125 -8.054688 C -4.828125 -8.054688 -1.601562 -8.054688 -1.601562 -8.054688 C -1.601562 -8.054688 3.214844 -12.882812 3.214844 -12.882812 Z M -0.796875 -12.882812 C -0.796875 -12.882812 -11.269531 -12.882812 -11.269531 -12.882812 C -11.269531 -12.882812 -11.269531 -16.105469 -11.269531 -16.105469 C -11.269531 -16.105469 -16.105469 -20.933594 -16.105469 -20.933594 C -16.105469 -20.933594 -16.105469 0 -16.105469 0 C -16.105469 0 -11.269531 0 -11.269531 0 C -11.269531 0 -11.269531 -8.054688 -11.269531 -8.054688 C -11.269531 -8.054688 -5.632812 -8.054688 -5.632812 -8.054688 C -5.632812 -8.054688 -0.796875 -12.882812 -0.796875 -12.882812 Z M -0.796875 -12.882812 "/></g></g></g><g fill="#fde047" fill-opacity="1"><g transform="translate(32.571167, 429.152428)"><g><path d="M 3.214844 -4.828125 C 3.214844 -4.828125 0 -4.828125 0 -4.828125 C 0 -4.828125 -4.828125 0 -4.828125 0 C -4.828125 0 -1.601562 0 -1.601562 0 C -1.601562 0 3.214844 -4.828125 3.214844 -4.828125 Z M 0 -20.933594 C 0 -20.933594 -10.460938 -20.933594 -10.460938 -20.933594 C -10.460938 -20.933594 -15.300781 -16.105469 -15.300781 -16.105469 C -15.300781 -16.105469 -10.460938 -16.105469 -10.460938 -16.105469 C -10.460938 -16.105469 -10.460938 -10.460938 -10.460938 -10.460938 C -10.460938 -10.460938 -5.632812 -5.632812 -5.632812 -5.632812 C -5.632812 -5.632812 -5.632812 -16.105469 -5.632812 -16.105469 C -5.632812 -16.105469 0 -16.105469 0 -16.105469 C 0 -16.105469 0 -20.933594 0 -20.933594 Z M -0.796875 -4.828125 C -0.796875 -4.828125 -16.105469 -4.828125 -16.105469 -4.828125 C -16.105469 -4.828125 -16.105469 0 -16.105469 0 C -16.105469 0 -5.632812 0 -5.632812 0 C -5.632812 0 -0.796875 -4.828125 -0.796875 -4.828125 Z M -11.269531 -20.933594 C -11.269531 -20.933594 -14.492188 -20.933594 -14.492188 -20.933594 C -14.492188 -20.933594 -19.332031 -16.105469 -19.332031 -16.105469 C -19.332031 -16.105469 -16.105469 -16.105469 -16.105469 -16.105469 C -16.105469 -16.105469 -11.269531 -20.933594 -11.269531 -20.933594 Z M -11.269531 -20.933594 "/></g></g></g><g fill="#fde047" fill-opacity="1"><g transform="translate(32.571167, 405.805051)"><g><path d="M 3.214844 -20.933594 C 3.214844 -20.933594 0 -20.933594 0 -20.933594 C 0 -20.933594 -4.828125 -16.105469 -4.828125 -16.105469 C -4.828125 -16.105469 -1.601562 -16.105469 -1.601562 -16.105469 C -1.601562 -16.105469 3.214844 -20.933594 3.214844 -20.933594 Z M 0 -4.828125 C 0 -4.828125 -5.632812 -4.828125 -5.632812 -4.828125 C -5.632812 -4.828125 -5.632812 -15.300781 -5.632812 -15.300781 C -5.632812 -15.300781 -10.460938 -10.460938 -10.460938 -10.460938 C -10.460938 -10.460938 -10.460938 0 -10.460938 0 C -10.460938 0 0 0 0 0 C 0 0 0 -4.828125 0 -4.828125 Z M -0.796875 -20.933594 C -0.796875 -20.933594 -16.105469 -20.933594 -16.105469 -20.933594 C -16.105469 -20.933594 -16.105469 0 -16.105469 0 C -16.105469 0 -11.269531 -4.828125 -11.269531 -4.828125 C -11.269531 -4.828125 -11.269531 -16.105469 -11.269531 -16.105469 C -11.269531 -16.105469 -5.632812 -16.105469 -5.632812 -16.105469 C -5.632812 -16.105469 -0.796875 -20.933594 -0.796875 -20.933594 Z M -0.796875 -20.933594 "/></g></g></g><g fill="#fde047" fill-opacity="1"><g transform="translate(32.571167, 382.457675)"><g><path d="M 3.214844 -4.828125 C 3.214844 -4.828125 0 -4.828125 0 -4.828125 C 0 -4.828125 -4.828125 0 -4.828125 0 C -4.828125 0 -1.601562 0 -1.601562 0 C -1.601562 0 3.214844 -4.828125 3.214844 -4.828125 Z M -0.796875 -4.828125 C -0.796875 -4.828125 -10.460938 -4.828125 -10.460938 -4.828125 C -10.460938 -4.828125 -10.460938 0 -10.460938 0 C -10.460938 0 -5.632812 0 -5.632812 0 C -5.632812 0 -0.796875 -4.828125 -0.796875 -4.828125 Z M 0 -20.933594 C 0 -20.933594 -5.632812 -15.300781 -5.632812 -15.300781 C -5.632812 -15.300781 -5.632812 -20.933594 -5.632812 -20.933594 C -5.632812 -20.933594 -16.105469 -20.933594 -16.105469 -20.933594 C -16.105469 -20.933594 -16.105469 0 -16.105469 0 C -16.105469 0 -11.269531 -4.828125 -11.269531 -4.828125 C -11.269531 -4.828125 -11.269531 -16.105469 -11.269531 -16.105469 C -11.269531 -16.105469 -10.460938 -16.105469 -10.460938 -16.105469 C -10.460938 -16.105469 -10.460938 -9.664062 -10.460938 -9.664062 C -10.460938 -9.664062 -5.632812 -4.828125 -5.632812 -4.828125 C -5.632812 -4.828125 -5.632812 -8.859375 -5.632812 -8.859375 C -5.632812 -8.859375 0 -14.492188 0 -14.492188 C 0 -14.492188 0 -20.933594 0 -20.933594 Z M 0 -20.933594 "/></g></g></g></svg>