<svg xmlns="http://www.w3.org/2000/svg" xmlns:xlink="http://www.w3.org/1999/xlink" viewBox="0 0 3710 3710" xmlns:v="https://vecta.io/nano"><style><![CDATA[.AM,.h,.O,.q,.c,.v,.AK,.Z,.R,.AX,.AZ{mix-blend-mode:multiply}.g,.E{mix-blend-mode:soft-light}.C{isolation:isolate}.Aa{opacity:.3}.Ab{fill:#d8dee8}]]></style><defs><clipPath id="A"><path d="M2692.44 1735.03l-28.67 2.8c-27.45 2.67-87.62 19.33-108.36-8.01-34.2-45.1 52.69-121.58 74.56-155.93 27.06-42.5 60.59-89.82 66.03-141.44 8.27-78.5-45.5-184.69-111.87-225.69-91.54-56.55-219.42-18.07-301.66 37.45-119.14 80.42-202.86 213.08-236.84 351.64-36.63 149.35 13.89 303.94-.59 455.31-22.75 237.92-359.95-65.19-294.06 560.44 14.55 138.11 38.27 289.2 115.87 407.58 32.18 49.09 96.51 117.31 160.63 113.37 90.91-5.58 86.85-134.2 115.06-193.58 32.97-69.4 90.49-124.24 154.41-165.25 81.3-52.17 175.56-98.83 207.88-197.33 20.99-63.96-10.6-129.84-51.01-179.59-22.27-27.42-69.74-58.78-62.63-99.18 5.9-33.51 52.99-58.14 77.55-75.8 75.52-54.34 148.95-112.89 216.11-177.35 60.27-57.85 162.2-145.59 153.95-239.59-6.64-75.65-84.8-75.31-146.36-69.84z" class="Ab"/></clipPath><clipPath id="B"><path d="M3196.58 1954.26c-31.81-114.64-132.52-201.46-247.74-231.43-70.15-18.25-155.8-24.42-227.35-11.97-100.64 17.52-183.71 83.17-248.46 159.26-76.08 89.4-83.2 200.2-110.4 310.25-5.33 21.58-40.5 140.39-67.14 70.76-37.14-97.1-119.96-79.97-119.98-79.97-64.8 13.4-114.61 60.99-138.57 120.87-64 159.95-44.22 367.73-30.68 535.39 6.37 78.86 16.18 157.31 27.87 235.49 2.89 19.33 16.77 35.2 35.56 40.6a49.92 49.92 0 0 0 51.7-15.5c13.22-15.44 27.07-29.62 39.89-42.09 123.3-119.99 316.35-137.75 479.25-144.93 95.11-4.19 173.47-10.24 256.34-61.31 34.43-21.22 71.86-47.28 87.82-86.06 14.44-35.08 17.25-95.16-4.5-127.78-27.09-40.63-87.24-38.07-123.05-68-57.86-48.36 93.47-82.01 123.95-91.81 48.6-15.62 80.82-54.38 117.23-87.99 27.81-25.67 53.96-53.61 74.14-85.77 61.65-98.23 54.07-230.08 24.13-338.01z" fill="#bfc8d6"/></clipPath><linearGradient id="C" x1="2060.31" y1="959.54" x2="2103.61" y2="1091.72" xlink:href="#AQ"><stop offset="0" stop-color="#ffc444"/><stop offset="1" stop-color="#f36f56"/></linearGradient><linearGradient id="D" x1="7400.11" y1="967.94" x2="7443.42" y2="1100.13" gradientTransform="translate(8851.1) rotate(-180) scale(1 -1)" xlink:href="#C"/><linearGradient id="E" x1="1889.71" y1="2405.89" x2="1958.55" y2="2405.89" gradientTransform="translate(3475.56 -160.45) rotate(174.85) scale(1 -1)" xlink:href="#AQ"><stop offset="0" stop-color="#444b8c"/><stop offset="1" stop-color="#26264f"/></linearGradient><linearGradient id="F" x1="1457.95" y1="2373.3" x2="1488.15" y2="2310.79" gradientTransform="translate(3059.63 -60.67) rotate(176.02) scale(1 -1)" xlink:href="#C"/><linearGradient id="G" x1="1472.38" y1="2351.13" x2="1548.58" y2="2351.13" gradientTransform="translate(2987.07 -210.66) rotate(167.68) scale(1 -1)" xlink:href="#E"/><linearGradient id="H" x1="1348.44" y1="2367.92" x2="1379.81" y2="2303" gradientTransform="translate(2993.59 -128.67) rotate(171.65) scale(1 -1)" xlink:href="#C"/><linearGradient id="I" x1="2027.272" y1="2281.386" x2="1855.154" y2="1829.774" xlink:href="#AQ"><stop offset="0" stop-color="#311944"/><stop offset="1" stop-color="#893976"/></linearGradient><linearGradient id="J" x1="1995.028" y1="2293.341" x2="1822.998" y2="1841.964" xlink:href="#I"/><linearGradient id="K" x1="1919.078" y1="2297.758" x2="1693.957" y2="1872.618" xlink:href="#I"/><linearGradient id="L" x1="1558.64" y1="1704.55" x2="1994.83" y2="696.69" xlink:href="#AQ"><stop offset="0" stop-color="#aa80f9"/><stop offset="1" stop-color="#6165d7"/></linearGradient><linearGradient id="M" x1="1719.47" y1="1826.63" x2="1990.46" y2="1200.48" xlink:href="#L"/><linearGradient id="N" x1="1759.103" y1="1357.793" x2="1857.421" y2="1178.291" xlink:href="#C"/><linearGradient id="O" x1="985.86" y1="1100.41" x2="933.8" y2="968.2" gradientTransform="translate(2808.6 252.48) rotate(-177.16) scale(1 -1)" xlink:href="#AQ"><stop offset="0" stop-color="#311944"/><stop offset="1" stop-color="#6b3976"/></linearGradient><linearGradient id="P" x1="1819.602" y1="1209.734" x2="1819.434" y2="1402.639" xlink:href="#C"/><linearGradient id="Q" x1="969.96" y1="1106.75" x2="917.85" y2="974.39" xlink:href="#O"/><linearGradient id="R" x1="1837.21" y1="1231.05" x2="1841" y2="1264.8" xlink:href="#AQ"><stop offset="0" stop-color="#ffc444"/><stop offset="1" stop-color="#f36f56"/></linearGradient><linearGradient id="S" x1="1800.78" y1="450.5" x2="1659.76" y2="1081.66" xlink:href="#C"/><linearGradient id="T" x1="1698.21" y1="436.2" x2="2024.77" y2="1432.92" xlink:href="#C"/><linearGradient id="U" x1="1511.22" y1="826.03" x2="2259.51" y2="826.03" xlink:href="#C"/><linearGradient id="V" x1="1452.39" y1="2578.88" x2="1146.4" y2="3609.6" xlink:href="#C"/><linearGradient id="W" x1="1576.82" y1="2957.92" x2="2960.83" y2="2957.92" xlink:href="#C"/><linearGradient id="X" x1="875.06" y1="2575.25" x2="1208.85" y2="2578.9" xlink:href="#L"/><linearGradient id="Y" x1="1576.82" y1="2435.12" x2="2960.83" y2="2435.12" xlink:href="#L"/><linearGradient id="Z" x1="1576.82" y1="2709.63" x2="2960.83" y2="2709.63" xlink:href="#L"/><linearGradient id="a" x1="1155.08" y1="2778.85" x2="1065.7" y2="2646.53" xlink:href="#L"/><linearGradient id="b" x1="739.1" y1="1905.2" x2="718.09" y2="1809" xlink:href="#I"/><linearGradient id="c" x1="-5439.49" y1="2630.78" x2="-5700.04" y2="1969.01" gradientTransform="translate(-4917.27 10.92) rotate(179.51) scale(1 -1)" xlink:href="#E"/><linearGradient id="d" x1="6459.1" y1="3256.79" x2="6515.49" y2="3256.79" gradientTransform="translate(-5454.47 15.66) rotate(-.49)" xlink:href="#E"/><linearGradient id="e" x1="1052.996" y1="3242.726" x2="1037.724" y2="3150.253" xlink:href="#I"/><linearGradient id="f" x1="6239.22" y1="3270.06" x2="6291.75" y2="3270.06" gradientTransform="translate(-5454.47 15.66) rotate(-.49)" xlink:href="#E"/><linearGradient id="g" x1="822.77" y1="3246.535" x2="820.49" y2="3161.202" xlink:href="#I"/><linearGradient id="h" x1="943.401" y1="3287.095" x2="1006.99" y2="2737.141" xlink:href="#AQ"><stop offset="0" stop-color="#40447e"/><stop offset="1" stop-color="#3c3b6b"/></linearGradient><linearGradient id="i" x1="942.801" y1="3287.03" x2="1006.38" y2="2737.076" xlink:href="#h"/><linearGradient id="j" x1="708.668" y1="2746.363" x2="966.113" y2="2907.117" xlink:href="#h"/><linearGradient id="k" x1="1151.07" y1="1949.01" x2="-96.24" y2="3517.85" xlink:href="#AQ"><stop offset="0" stop-color="#ff9085"/><stop offset="1" stop-color="#fb6fbb"/></linearGradient><linearGradient id="l" x1="991.047" y1="1955.689" x2="907.079" y2="2118.853" xlink:href="#I"/><linearGradient id="m" x1="1090.383" y1="1987.72" x2="984.963" y2="1996.646" xlink:href="#I"/><linearGradient id="n" x1="857.368" y1="1943.666" x2="-28.91" y2="5014.807" xlink:href="#k"/><linearGradient id="o" x1="1467.619" y1="-1279.472" x2="1392.966" y2="-276.511" xlink:href="#L"/><linearGradient id="p" x1="1343.569" y1="-1288.706" x2="1268.906" y2="-285.747" xlink:href="#L"/><linearGradient id="q" x1="1354.266" y1="1553.947" x2="847.455" y2="2219.144" xlink:href="#C"/><linearGradient id="r" x1="1279.199" y1="-1293.497" x2="1204.536" y2="-290.538" xlink:href="#L"/><linearGradient id="s" x1="1136.94" y1="1993.51" x2="1123.07" y2="1929.96" xlink:href="#I"/><linearGradient id="t" x1="1365.73" y1="1443.33" x2="1120.29" y2="2362.51" xlink:href="#L"/><linearGradient id="u" x1="1389.94" y1="1449.8" x2="1144.51" y2="2368.98" xlink:href="#L"/><linearGradient id="v" x1="1151.06" y1="2072.86" x2="293.46" y2="3151.54" xlink:href="#k"/><linearGradient id="w" x1="-1637.68" y1="3314.92" x2="-1546.1" y2="3314.92" gradientTransform="translate(1088.67 -58.46) rotate(177.34) scale(1 -1)" xlink:href="#E"/><linearGradient id="x" x1="-1566.5" y1="3205.4" x2="-1612.5" y2="3289.55" gradientTransform="translate(1088.67 -58.46) rotate(177.34) scale(1 -1)" xlink:href="#C"/><linearGradient id="y" x1="-1738.11" y1="3303.37" x2="-1576.17" y2="2597.02" gradientTransform="translate(1088.67 -58.46) rotate(177.34) scale(1 -1)" xlink:href="#O"/><linearGradient id="z" x1="-1537.69" y1="3213.86" x2="-1411.68" y2="3213.86" gradientTransform="translate(1245.52) rotate(-180) scale(1 -1)" xlink:href="#E"/><linearGradient id="AA" x1="-1469.11" y1="3207.46" x2="-1420.55" y2="3106.95" gradientTransform="translate(1245.52) rotate(-180) scale(1 -1)" xlink:href="#C"/><linearGradient id="AB" x1="-1735.87" y1="3303.89" x2="-1573.93" y2="2597.54" gradientTransform="translate(1088.67 -58.46) rotate(177.34) scale(1 -1)" xlink:href="#L"/><linearGradient id="AC" x1="-1543.43" y1="2855.62" x2="-1257.34" y2="2404.62" gradientTransform="translate(1245.52) rotate(-180) scale(1 -1)" xlink:href="#O"/><linearGradient id="AD" x1="-1506.58" y1="2879" x2="-1220.49" y2="2428" gradientTransform="translate(1245.52) rotate(-180) scale(1 -1)" xlink:href="#L"/><linearGradient id="AE" x1="-1364.7" y1="1723.46" x2="-1325.1" y2="1928.22" gradientTransform="translate(1849.57) rotate(-180) scale(1 -1)" xlink:href="#C"/><linearGradient id="AF" x1="-812.06" y1="1383.49" x2="-803.85" y2="2777.28" gradientTransform="translate(1849.57) rotate(-180) scale(1 -1)" xlink:href="#C"/><linearGradient id="AG" x1="3247.038" y1="2919.388" x2="2988.537" y2="1549.724" xlink:href="#C"/><linearGradient id="AH" x1="-929.92" y1="1384.19" x2="-921.71" y2="2777.97" gradientTransform="translate(1849.57) rotate(-180) scale(1 -1)" xlink:href="#C"/><linearGradient id="AI" x1="13837.95" y1="-5700.89" x2="13845.89" y2="-5912.45" gradientTransform="translate(-11864.63 2001.47) rotate(19.79) scale(1 .87)" xlink:href="#C"/><linearGradient id="AJ" x1="-11291.71" y1="928.09" x2="-11348.39" y2="784.14" gradientTransform="translate(-8111.84 4901.75) rotate(160.59) scale(1 -1)" xlink:href="#O"/><linearGradient id="AK" x1="2860.328" y1="1910.204" x2="2937.56" y2="2099.382" xlink:href="#C"/><linearGradient id="AL" x1="3061.18" y1="1052.37" x2="2099.38" y2="2117.76" xlink:href="#AQ"><stop offset="0" stop-color="#311944"/><stop offset="1" stop-color="#a03976"/></linearGradient><linearGradient id="AM" x1="3072.34" y1="1054.11" x2="2113.4" y2="2116.32" xlink:href="#k"/><linearGradient id="AN" x1="3161.72" y1="1160.5" x2="2244.81" y2="2176.17" xlink:href="#k"/><linearGradient id="AO" x1="2587.31" y1="2092.72" x2="2593.33" y2="2433.2" xlink:href="#AQ"><stop offset="0" stop-color="#ffc444"/><stop offset=".65" stop-color="#f78c50"/><stop offset="1" stop-color="#f36f56"/></linearGradient><linearGradient id="AP" x1="-1143.17" y1="2339.08" x2="-675.45" y2="2339.08" gradientTransform="translate(1849.57) rotate(-180) scale(1 -1)" xlink:href="#C"/><linearGradient id="AQ" gradientUnits="userSpaceOnUse"/></defs><g class="C"><path d="M2692.44 1735.03l-28.67 2.8c-27.45 2.67-87.62 19.33-108.36-8.01-34.2-45.1 52.69-121.58 74.56-155.93 27.06-42.5 60.59-89.82 66.03-141.44 8.27-78.5-45.5-184.69-111.87-225.69-91.54-56.55-219.42-18.07-301.66 37.45-119.14 80.42-202.86 213.08-236.84 351.64-36.63 149.35 13.89 303.94-.59 455.31-22.75 237.92-359.95-65.19-294.06 560.44 14.55 138.11 38.27 289.2 115.87 407.58 32.18 49.09 96.51 117.31 160.63 113.37 90.91-5.58 86.85-134.2 115.06-193.58 32.97-69.4 90.49-124.24 154.41-165.25 81.3-52.17 175.56-98.83 207.88-197.33 20.99-63.96-10.6-129.84-51.01-179.59-22.27-27.42-69.74-58.78-62.63-99.18 5.9-33.51 52.99-58.14 77.55-75.8 75.52-54.34 148.95-112.89 216.11-177.35 60.27-57.85 162.2-145.59 153.95-239.59-6.64-75.65-84.8-75.31-146.36-69.84z" class="Ab"/><g clip-path="url(#A)"><g class="E" opacity=".8" fill="#fff"><path d="M2207.91 3295.99c-.93 0-1.86-.28-2.68-.86-155.18-110.84-228.21-280.08-223.27-517.38 4.31-206.88 64.95-431.36 123.6-648.44 46.18-170.95 89.8-332.43 97.75-462.12 6.36-103.91 36.03-198.17 88.19-280.15 41.71-65.56 97.8-123.43 166.7-171.99 117.21-82.6 232.65-110.02 233.8-110.29 2.48-.58 4.96.97 5.54 3.45s-.97 4.96-3.45 5.54c-1.14.26-115.09 27.37-230.84 109.03-106.56 75.18-236.56 213.4-250.74 444.98-8 130.63-51.74 292.54-98.05 463.96-115.41 427.19-246.21 911.39 96.13 1155.91 2.07 1.48 2.55 4.36 1.07 6.44a4.61 4.61 0 0 1-3.76 1.93z"/><path d="M2211.57 1632.1a4.67 4.67 0 0 1-1.42-.22c-1.24-.4-30.78-10.25-63.09-48.67-29.47-35.03-66.95-101.73-78.19-220.48-.24-2.54 1.62-4.79 4.16-5.03a4.62 4.62 0 0 1 5.03 4.16c10.96 115.88 47.14 180.78 75.55 214.81 30.66 36.72 59.1 46.34 59.38 46.43a4.62 4.62 0 0 1 2.96 5.81 4.61 4.61 0 0 1-4.38 3.19zm-46.14 289.96a4.61 4.61 0 0 1-4.58-4.15 4.62 4.62 0 0 1 4.12-5.06c.79-.08 79.94-8.59 183.68-54.37 95.64-42.21 232.37-125.65 340.6-283.5 1.44-2.1 4.31-2.64 6.41-1.2s2.64 4.31 1.2 6.41c-109.55 159.78-247.98 244.2-344.83 286.88-105 46.27-185.32 54.87-186.12 54.95-.16.02-.32.02-.47.02zm-166.54 707.5c-.51 0-1.03-.09-1.53-.26-3.21-1.13-79.42-28.63-142.37-105.65-36.99-45.25-61.48-98.21-72.78-157.4-14.09-73.76-7.61-157.41 19.26-248.62.72-2.44 3.28-3.84 5.73-3.12a4.62 4.62 0 0 1 3.12 5.73c-59.74 202.79-4.94 327.95 51.55 397.24 61.29 75.18 137.8 102.85 138.57 103.12 2.4.85 3.66 3.48 2.81 5.89a4.61 4.61 0 0 1-4.35 3.08zm26.84-155.71a4.62 4.62 0 0 1-4.57-4.01c-.33-2.53 1.45-4.84 3.97-5.18 3.69-.49 369.95-50.24 459.69-188.83a4.62 4.62 0 0 1 6.38-1.37 4.62 4.62 0 0 1 1.37 6.38c-38.76 59.85-129.12 110.53-268.57 150.63-103.38 29.72-196.74 42.21-197.67 42.34-.2.03-.41.04-.61.04z"/></g></g><path d="M3196.58 1954.26c-31.81-114.64-132.52-201.46-247.74-231.43-70.15-18.25-155.8-24.42-227.35-11.97-100.64 17.52-183.71 83.17-248.46 159.26-76.08 89.4-83.2 200.2-110.4 310.25-5.33 21.58-40.5 140.39-67.14 70.76-37.14-97.1-119.96-79.97-119.98-79.97-64.8 13.4-114.61 60.99-138.57 120.87-64 159.95-44.22 367.73-30.68 535.39 6.37 78.86 16.18 157.31 27.87 235.49 2.89 19.33 16.77 35.2 35.56 40.6a49.92 49.92 0 0 0 51.7-15.5c13.22-15.44 27.07-29.62 39.89-42.09 123.3-119.99 316.35-137.75 479.25-144.93 95.11-4.19 173.47-10.24 256.34-61.31 34.43-21.22 71.86-47.28 87.82-86.06 14.44-35.08 17.25-95.16-4.5-127.78-27.09-40.63-87.24-38.07-123.05-68-57.86-48.36 93.47-82.01 123.95-91.81 48.6-15.62 80.82-54.38 117.23-87.99 27.81-25.67 53.96-53.61 74.14-85.77 61.65-98.23 54.07-230.08 24.13-338.01z" fill="#bfc8d6"/><g clip-path="url(#B)"><g class="E" opacity=".8" fill="#fff"><path d="M2015.03 3144.69a4.55 4.55 0 0 1-1.96-.44 4.63 4.63 0 0 1-2.21-6.14c1.52-3.22 154.19-325.81 364.89-656.44 123.81-194.28 243.16-353.32 354.73-472.69 139.89-149.68 268.08-237.22 381-260.21 2.51-.51 4.93 1.1 5.44 3.6a4.61 4.61 0 0 1-3.6 5.44c-111.01 22.6-237.55 109.22-376.1 257.46-111.18 118.96-230.18 277.55-353.69 471.35-210.39 330.14-362.81 652.2-364.33 655.41-.79 1.67-2.45 2.65-4.18 2.65z"/><path d="M2563.73 2221.54c-.24 0-.49-.02-.73-.06-2.52-.4-4.23-2.77-3.83-5.28.7-4.35 68.68-435.89 1.17-508.71-1.73-1.87-1.62-4.79.25-6.52s4.79-1.62 6.52.25c70.53 76.09 4.04 498.49 1.17 516.44-.36 2.27-2.32 3.89-4.55 3.89zm806.72-223.44a4.62 4.62 0 0 1-2.44-.7c-180.97-113.11-557.46-54.04-561.25-53.43-2.52.4-4.88-1.31-5.29-3.82-.41-2.52 1.31-4.88 3.82-5.29.95-.15 96.67-15.38 213.71-16.27 108.29-.85 257.63 10.82 353.89 70.99a4.62 4.62 0 0 1-2.45 8.53zm-1203.53 851.96a4.7 4.7 0 0 1-1.05-.12c-2.48-.58-4.03-3.05-3.45-5.54 49.39-213.45-135.81-524.65-137.69-527.76-1.31-2.18-.61-5.02 1.57-6.33 2.19-1.31 5.02-.61 6.33 1.57.47.79 47.83 79.92 88.36 184.65 37.51 96.93 76.7 236.33 50.41 349.95a4.61 4.61 0 0 1-4.49 3.57zm153.12-265.59c-1.94 0-3.74-1.23-4.38-3.17a4.62 4.62 0 0 1 2.94-5.83c1.66-.55 167.79-55.03 369.01-94.51 186.05-36.5 441.05-67.25 599.37-6.48 2.38.91 3.57 3.58 2.65 5.96-.91 2.38-3.58 3.57-5.96 2.65-156.27-59.98-409.43-29.34-594.28 6.92-200.65 39.36-366.24 93.67-367.89 94.21-.48.16-.97.23-1.45.23z"/></g></g><path d="M2087.6 1048.19l-9.77-18.39s-8.99-1.85-13.07-8.28l-4.08-6.43s-2.04-6.75 5.36-14.08c1.67-1.65 2.54-3.97 2.2-6.3l-3.48-24.96c-.27-2.42.72-5.31 1.79-7.61.73-1.57 2.99-1.41 3.45.26l7.84 28.83s6.28-1.58 8.44 3.7c0 0 5.43 3.24 6.24 8.88s0 19.29 0 19.29l8.6 19.4-13.49 5.68z" fill="url(#C)"/><path d="M1423.7 1056.6l9.77-18.39s8.99-1.85 13.07-8.28l4.08-6.43s2.04-6.75-5.36-14.08c-1.67-1.65-2.54-3.97-2.2-6.3l3.48-24.96c.27-2.42-.72-5.31-1.79-7.61-.73-1.57-2.99-1.41-3.45.26l-7.84 28.83s-6.28-1.58-8.44 3.7c0 0-5.43 3.24-6.24 8.88s0 19.29 0 19.29l-8.6 19.4 13.49 5.68z" fill="url(#D)"/><path d="M1744.86 2395.14c-3.57 3.28-3.8 10.95-3.94 15.97-.07 2.24-.1 3.36.2 4.13 2.17 5.63 13.33 5.55 30.89 6.27 27.75 1.14 36.09 2.81 38-1.43 1.79-3.97-3.49-9.97-4.08-10.63-3.19-3.55-6.91-4.69-14.08-6.57-13.27-3.49-22.21-5.3-24.91-5.85-16.89-3.42-19.72-4.05-22.06-1.89z" fill="url(#E)"/><path d="M1764.32,2367.47l1.08,31.59c-.86,1.48-10.45,5.53-17.67,1.23l-5.44-31.28,22.03-1.53Z" fill="url(#F)"/><path d="M1979.25 2397.99c-4.97 4.74-6.55 13.84-2.72 18.56 3.76 4.64 9.98 1.62 27.06 2.99 18.29 1.47 22.85 5.86 35.48 3.21 5.1-1.08 14.17-3.86 14.19-7.32.02-2.43-4.44-3.92-19.27-9.55-21.06-8-20.94-8.37-25.46-9.33-11.34-2.4-22.72-4.82-29.28 1.43z" fill="url(#G)"/><path d="M1992.59,2369.9l7.56,29.82c-.78,1.54-10.42,6.31-18.25,2.57l-12.06-29.19,22.76-3.21Z" fill="url(#H)"/><path d="M1946.69 1722.92c-4.17 98.7-3.33 209.97 6.79 331.32 10 119.94 27.31 228.74 47.47 324.66l-35.68 7.28c-28.27-28.16-63.46-72-78.27-132.17-9.19-37.34-4.4-56.05-9.01-101.64-7.34-72.59-28.24-111.49-48.77-170.78-18.45-53.27-39.43-131.15-47.27-234.2l164.74-24.47z" fill="url(#I)"/><path class="O Aa" d="M1930.26 2184.21c-13.1-49.79-38.33-62.96-39.22-109.96-.64-33.25 11.81-35.96 10.98-67.79-1.25-48.27-30.7-73.58-45.5-103.94-15.63-32.07-21.61-83.57 20.5-169.25l-95.08 14.12c7.84 103.05 28.82 180.93 47.27 234.2 20.53 59.29 41.43 98.19 48.77 170.78 4.61 45.59-.18 64.29 9.01 101.64 14.81 60.17 50.01 104.01 78.27 132.17l9.07-1.85c-30.56-35.02-41.34-66.29-44.08-91.66-4.46-41.28 13.2-58.25 0-108.46z" fill="url(#J)"/><path d="M1833.2 1709.53l-37.32 382.38-22.6 288.64-34.72 2.42c-10.01-21.28-23.08-53.7-31.02-94.77-9.65-49.89-5.25-78.98-7.91-130.29-2.99-57.55-11.1-70.49-22.79-143.52-23.73-148.21-35.59-222.31 2.04-266 12.22-14.18 50.02-49.38 154.31-38.85z" fill="url(#K)"/><path d="M2107.26 1031.39l-32.52 13.75c5.36 12.44 35.27 84.89.76 152.15-30.04 58.55-99.73 95.3-178.14 92.51-14.36-2.34-29.37-4.35-44.99-5.94-7.48-1.7-14.99-3.72-22.49-6.18l-.22 4.22-21.64-1.23c-45.72-1.88-88.11.62-126.6 5.58v-.17c-.34.11-.69.2-1.03.31a756.19 756.19 0 0 0-67.06 11.81c-78.17 2.58-147.57-34.12-177.53-92.52-34.5-67.26-4.6-139.71.76-152.15l-32.52-13.75c-14.69 16.17-105.41 119.13-81.88 246.3 27.11 146.57 191.24 263.7 281.55 225.2l.68 2.24c14.09 48.14 23.58 93.9 24.4 148.28.28 17.74.08 67.24 3 140.1 1.93 47.24 3.9 74.3 19.59 81.33 1.68.74 3.29 1.19 4.89 1.36a19.06 19.06 0 0 0 4.27-.12c13.18-2.05 27.97-18.98 60.14-29.86 29.12-9.86 58.49-7.19 115.99-1.48 85.77 8.5 91.84 20.62 108.68 10.56 9.9-5.92 15.12-14.5 18.57-30.11 5.63-25.06 6.78-68.22 15.77-147.5 9-78.86 12.82-79.72 16.76-135.59a1250.16 1250.16 0 0 0 2.49-50.05c82.13-28.95 170.92-118.39 190.22-222.76 23.52-127.17-67.19-230.13-81.88-246.3z" fill="url(#L)"/><path class="R Aa" d="M1964.97 1833.5c-3.49 17.21-8.71 26.12-19.63 32.08-16.84 9.16-22.92-1.89-108.68-9.61-57.5-5.18-86.87-7.6-115.99 1.36-32.16 9.94-46.95 25.3-60.14 27.15a17.96 17.96 0 0 1-4.27.12c-1.6-.16-3.2-.62-4.89-1.36-15.69-7.02-17.66-34.09-19.59-81.33-2.92-72.87-2.71-122.36-3-140.1-.82-54.38-10.31-100.14-24.4-148.28 21.52-6.98 33.68-4.81 40.95-.21 23.33 14.66-2.18 53.72 24.11 95.95 27.77 44.52 79.52 38.73 87.37 71.26 9.9 40.91-64.32 82.4-54.22 95.95 9.69 12.98 71.84-33.89 128.03-13.72 39.43 14.13 39.19 48.06 81.37 64.4 17.17 6.69 35.03 7.97 51.92 6.41.37 0 .7-.04 1.07-.08z" fill="url(#M)"/><path d="M1800.31,1200.14c-.92,20.45-4.07,36.53-6.82,47.52-3.15,12.59-5.11,15.78-7.52,18.32-3.63,3.83-9,6.92-38.67,12.62-16.15,3.1-18.19,2.88-18.63,4.45-2.13,7.62,39.93,36.24,85.16,32.3,27.69-2.41,53.52-16.75,52.43-25.07-1.1-8.37-28.79-5.39-36.17-20.81-5.13-10.73,2.04-25.19,10.23-37.05-6.57-14.07-33.44-18.2-40.01-32.27Z" fill="url(#N)"/><path d="M1850.88 1210.94c6.94-8.27 8.15-23.28 1.18-33.19-5.99-8.52-16.05-10.23-22.07-11.25-17.45-2.96-39.99 3.18-48.55 18.93-5.08 9.33 3.74 29.75 5.09 33.41 1.54 4.14 4.64 5.69 7.41 8.91l19.65 23.37c.99-3.28 2.43-7.34 4.63-11.7.84-1.68 4.22-8.23 9.08-13.55 9.74-10.67 16.99-7.09 23.58-14.93z" fill="url(#O)"/><path d="M1799.26 1240.84s10.53 19.55 33.59 19.28c20.64-.24 26.12-46.21 13.5-56.7-4.21-3.5-12.92-5.33-20.16-3.71-4.28.96-5.8 2.63-12.82 4.06-6.48 1.32-8.24.51-10.26 2.03-2.52 1.9-4.55 6.78-1.25 20.49-3.71-4.18-8.34-5.96-11.76-4.56-.55.22-2.01 1.11-2.88 2.52-3.16 5.12 1.3 12.1 12.05 16.59z" fill="url(#P)"/><path d="M1802.33 1202.99c.95.79-2.28 4.33-2.78 9.56-.98 10.15 8.66 22.9 19.1 24.5 6.18.94 8.08-2.71 18.4-3.24 6.39-.33 11.64.76 14.92 1.66 2.63 11.32-1 22.28-8.73 27.04-8.32 5.13-18.39 1.21-22.61-.43-2.82-1.1-11.85-4.59-16.2-13.27-4.53-9.05.66-14.08-4.77-20.32-2.74-3.15-6.47-4.65-9.86-10.65-.92-1.63-1.52-3.06-1.88-4.02 5.61-5.34 13.01-11.98 14.39-10.83z" fill="url(#Q)"/><ellipse cx="1838.55" cy="1242.93" rx="3.34" ry="4.24" fill="url(#R)"/><path d="M2251.3 660.09l-87.86 354.8c-.16.74.2-.74 0 0-116.82-34.95-242.13-50.93-371.56-51.3-91.55-.25-185.41 8.38-280.42 26.33-37.01 6.98-73.56 17.37-110.86 27.23-2.55.66-5.67-.7-8.21 0l-123.35-412.71c138.87-29.12 275.57-43.09 408.07-42.84 177.15.37 346.87 26.12 504.31 75 23.58 7.31 46.87 15.16 69.87 23.49z" fill="url(#S)"/><path d="M2259.51 660.09l-88.39 357.06-7.68-2.26c-117.06-34.21-242.05-51.67-371.56-51.3-91.68.29-185.62 9.45-280.66 27.97-36.72 7.11-73.65 15.65-110.61 25.59l-.62-2.01-122.73-410.7c136-28.55 269.9-42.51 399.86-42.84 178.06-.41 348.64 24.77 506.94 73.32 25.47 7.76 50.65 16.18 75.45 25.18z" fill="url(#T)"/><path d="M2120.15 737.4c-4.85 18.97-22.99 29.26-40.79 23.6-177.03-56.39-372.82-67.88-572.11-29.32-21.35 4.12-43.44-9.37-49.34-30.98h0c-5.95-21.63 7.9-43.26 30.86-47.42 211.82-38.42 419.16-23.8 606 37.97 18.94 6.26 30.18 27.21 25.38 46.15h0zm0 148.15c-4.85 19.09-22.99 29.81-40.79 24.58-177.03-52.13-372.82-58.91-572.11-15.56-21.35 4.63-43.44-8.33-49.34-29.79h0c-5.95-21.48 7.9-43.45 30.86-48.16 211.82-43.51 419.16-33.88 606 23.4 18.94 5.79 30.18 26.5 25.38 45.54h0z" fill="#fff"/><path class="Z Aa" d="M2259.51 660.09l-88.39 357.06-7.68-2.26c-.16.74.2-.74 0 0-116.82-34.95-242.13-50.93-371.56-51.3-91.68.29-185.62 9.45-280.66 27.97l.24-1.64 3.53-20.45c13.35-78.49 157.11-12.9 245.17-126.88s228.21-48.26 284.68-41.07c56.48 7.19 73.81-86.83 122.2-150.95 4.44-5.87 9.28-10.47 14.38-13.96a28.26 28.26 0 0 1 2.63-1.68c25.47 7.76 50.65 16.18 75.45 25.18z" fill="url(#U)"/><path d="M1726.01,3186.69l-683.76-19.06c-77.98-3.56-140.07-101.22-140.07-217.76v-1.28c0-116.54,62.09-212.63,140.07-214.22l731.61-24.75-47.85,477.06Z" fill="url(#V)"/><path d="M2936.08,3129.43l-1135.55,44.78c-106.23,4.19-193.44-73.44-193.44-173.44v-67.84c0-100,87.21-182.08,193.44-183.32l1135.55-13.19v393.01Z" class="Ab"/><path d="M2947.07 3149.94l-1201.05 49.14c-92.83 3.8-169.19-99.37-169.19-230.03v-1.44c0-130.66 76.36-237.73 169.19-238.68l1201.05-12.28c7.61-.08 13.77 9.23 13.77 20.78s-6.16 21.01-13.77 21.11l-1201.05 15.84c-74.74.99-136.09 87.29-136.09 192.39v1.43c0 105.09 61.35 188.26 136.09 185.43l1201.05-45.58c7.61-.29 13.77 8.85 13.77 20.4s-6.16 21.18-13.77 21.49z" fill="url(#W)"/><path class="c Aa Ab" d="M1684.99,2717.48l-650.89,14.66c-59.82,1.35-107.52-46.02-107.52-105.77v-40.53c0-59.75,47.7-111.17,107.52-114.9l650.89-40.63v287.17Z"/><path d="M1593.4,2730.5l-551.15,15.41c-77.98,1.59-140.07-60.29-140.07-137.91v-.85c0-77.62,62.09-144.76,140.07-149.79l551.15-43.1c9.67-.61,121.79,6.64,121.79,15.13s-104.72,14.93-114.32,15.5l-558.61,40.36c-63.01,3.79-113.38,57.93-113.38,120.76v.86c0,62.83,50.37,112.7,113.38,111.14l551.15-18.09c9.6-.25,121.79,8.39,121.79,16.88s-112.13,13.47-121.79,13.69Z" fill="url(#X)"/><path d="M2936.08 2702.81l-1328.99 12.27v-286.36l1328.99 12.35v261.74z" class="Ab"/><path d="M2947.07 2455.99l-1353.67-11.16c-9.15-.08-16.57-6.99-16.57-15.44s7.42-15.23 16.57-15.13l1353.67 13.83c7.61.08 13.77 6.38 13.77 14.08s-6.16 13.88-13.77 13.82z" fill="url(#Y)"/><path d="M2947.07 2716.66L1593.4 2730.5c-9.15.09-16.57-6.68-16.57-15.13s7.42-15.36 16.57-15.44l1353.67-11.16c7.61-.06 13.77 6.13 13.77 13.82s-6.16 14-13.77 14.08z" fill="url(#Z)"/><path class="g" d="M1542.75 3133.68l-145.33-8.3c-35.12-100.12-32.47-196.68 0-314.14l145.33.44c-29.14 119.92-24.7 225.98 0 322z" fill="#fff" opacity=".5"/><path class="h Ab" d="M1241.49,2743.66l-4.62-181.28-166.84,183.66s-90.15,48.59-74.67,133.91l103.13-41.03,91.61,31.74s2.3-89.61,51.38-127Z" opacity=".8"/><path d="M1051.28,2573.72l185.59-11.34s-87.29,66.32-46.76,308.29c0,0-79.34-25.2-113.86-68.35l-80.89,77.64s-49.39-215.13,55.91-306.23Z" fill="url(#a)"/><path d="M682.16 1808.19s8.78-9.77 9.7-24.74-1.22-44.9 20.77-39.1 33.6 1.53 28.1 18.63c0 0 6.72 17.48-14.05 25.85-20.77 8.36-23.52 30.05-23.52 30.05l-21-10.69z" fill="url(#b)"/><path d="M444.58,2106.51c2.57-56.44,38.46-92.6,47.41-101.35,53.49-52.25,129.01-50.23,153.18-49.58,85.76,2.3,105.13,44.87,164.97,29.02,50.66-13.41,54.56-48.63,98.17-51.01,45.59-2.49,93.4,33.15,112.54,73.65,36.9,78.08-20.68,199.76-102.85,236.48-85.38,38.16-131.56-44.79-288.1-20.3-57.09,8.93-90.55,26.16-127.55,5.25-40.53-22.9-59.83-77.16-57.78-122.17Z" fill="url(#c)"/><path d="M1036.72 3197.91s-4.53 4.31-4.47 11.86c.02 2.25 1.06 4.39 2.89 5.81 4.03 3.12 12.92 9.25 26.74 14.88 19.55 7.95 26.13 7.18 26.92 3.92s-9.3-12.04-17.96-19.71c-8.65-7.67-34.13-16.76-34.13-16.76z" fill="url(#d)"/><path d="M1030.25,3167.63s6.42,29.48,5.98,40.26c0,0,7.85,6.84,18.89-.16,0,0-5.9-26.92-3.2-38.12l-21.67-1.98Z" fill="url(#e)"/><path d="M818.59 3209.91s-5.08 3.64-6.07 11.13a7.4 7.4 0 0 0 2.06 6.16c3.56 3.64 11.52 10.95 24.43 18.43 18.27 10.58 24.89 10.73 26.12 7.61s-7.55-13.21-15.06-22-31.48-21.32-31.48-21.32z" fill="url(#f)"/><path d="M809.21,3182.73s6.42,29.48,5.98,40.26c0,0,7.85,6.84,18.89-.16,0,0-5.9-26.92-3.2-38.12l-21.67-1.98Z" fill="url(#g)"/><path d="M1101.82 2550.03a3600.89 3600.89 0 0 1-2.75 284.57c-6.2 125.91-18.58 242.65-34.28 348.99a85.19 85.19 0 0 1-23.77 3.31c-6.85-.03-12.81-.88-17.61-1.92l-12.88-54.73-16.05-61.95c-13.46-59.79 3.4-76.87-5.32-138.61-1.91-13.54-2.67-12.33-21.35-77.42-23.29-81.15-35.06-121.71-40.62-152.79-14.91-83.42-22.37-125.14.78-151.07 30.26-33.9 101.32-29.26 173.84 1.62z" fill="url(#h)"/><path class="q Aa" d="M1044.7 3133.06c-9.93-27.44 6.97-41.58 6.48-89.04-.42-40.94-13.16-45.94-17.34-91.94-3.83-42.17 5.4-54.26 7.48-93.19 3.93-73.38-25.24-97.73-31.32-153.91-4.18-38.68 2.35-95.04 53.3-168.91-58.1-17.34-110.49-15.51-135.34 12.33-23.15 25.94-15.7 67.65-.78 151.07 5.56 31.08 17.33 71.64 40.62 152.79 18.68 65.09 19.44 63.88 21.35 77.42 8.72 61.73-8.14 78.81 5.32 138.61 3.25 14.42 5.7 19.99 16.05 61.95l12.88 54.73c4.8 1.04 10.76 1.89 17.61 1.92a84.82 84.82 0 0 0 23.77-3.31l2.84-19.6c-9.85-8.04-18.3-18.15-22.93-30.92z" fill="url(#i)"/><path d="M1006.58,2544.63c-34.75,96.9-68.56,204.56-98.43,322.3-29.04,114.48-50.26,222.33-65.78,321.65-4.6,2.16-13.37,5.53-24.79,5.39-9.74-.12-17.35-2.75-21.8-4.69-11.71-28.99-24.01-66.72-31.48-111.89-4.8-28.99-10.03-60.58-6.52-101.24,4.67-54.02,19.46-62.68,25.91-116.11,4.82-39.93-1.91-47.76-4-105.51-3.25-89.56-4.93-135.72,17.2-167.77,47.53-68.86,186.64-46.16,209.69-42.14Z" fill="url(#j)"/><path d="M1125.52 2558.55c-10.45-59.01-1.93-56.1-11.73-124.25-12.83-89.22-28.85-103.99-36.48-166.67-4.51-37.05-16.77-126.88.18-197.94-36.38-8.5-75.26-11.22-163.17 2.56a264.75 264.75 0 0 0-31.58 6.95c-9.06-5.52-21.63 1.15-45.39 1.19-53.99.07-100.83-34.41-121.98-59.07-43.8-51.07-45.09-138.81-.64-215.17l-37.35-1.27c-8.06 8.25-114.02 119.55-79.65 224.95 19.49 59.77 80.21 105.71 84.42 108.83 38.92 28.86 62.22 27.18 101.38 66.76 11.05 11.17 26.16 28.44 35.65 31.85 36.06 63.03 35.6 101.39 23.85 125.97-11.85 24.78-34 33.16-57.53 81.94-23.35 48.39-13.44 64.78-34.53 86.05-37.84 38.15-95.61 11.52-108.05 37.65-12.22 25.67 31.31 77 75.47 102.63 34.96 20.29 68.66 23.52 92.38 25.55 43.08 3.68 50.1-5.56 122.37-11.67 54.11-4.58 84.71-7.17 125.49-1.41 56.46 7.98 74.38 23.77 87.88 12.42 17.74-14.93-5.92-52.93-20.96-137.85z" fill="url(#k)"/><path d="M921.25,2009.62c2.8,7.52,6.57,24.15-1.43,39.23-7,13.21-20.16,19.1-25.42,21.51-12.72,5.83-20.41,4.19-20.74,6.6-.72,5.34,35.83,22.27,73.41,14.38,22.09-4.63,42.94-17.5,41.49-24.61-1.63-7.97-30.01-2.18-39.93-17.57-6.34-9.83-2.34-23.97,2.69-35.3-7.36-6.09-22.69,1.85-30.06-4.25Z" fill="url(#l)"/><path d="M923.13 2027.37s18.78 8.38 33.74-5.35c13.37-12.27-10.89-49.61-25.5-50.05-4.88-.14-11.7 3.58-15.47 9.02-2.23 3.21-2.22 5.35-5.97 10.51-3.46 4.77-5.11 5.21-5.52 7.52-.51 2.89 1.12 7.72 11.6 15.98-4.98-.94-9.1.45-10.51 3.5-.22.49-.65 2.01-.37 3.57 1.03 5.67 8.2 8.26 18 5.29z" fill="url(#m)"/><g class="v Aa"><path d="M846.43 2608.56c31.29-63.1 110.64-69.27 114.2-119.53 2.6-36.77-39.27-41.74-55.91-94.7-25.01-79.63 50.04-130.83 23.47-185.55-18.15-37.37-57.58-22.57-149.21-70.53-42.77-22.38-110.66-57.92-149.71-128.97-15.88-28.9-23.86-57.99-27.52-84.06-11.23 32.75-15.64 69.01-4.03 104.61 19.49 59.77 80.21 105.71 84.42 108.83 38.92 28.86 62.22 27.18 101.38 66.76 11.05 11.17 26.16 28.44 35.65 31.85 36.06 63.03 35.6 101.39 23.85 125.97-11.85 24.78-34 33.16-57.53 81.94-23.35 48.39-13.44 64.78-34.53 86.05-37.84 38.15-95.61 11.52-108.05 37.65-12.22 25.67 31.31 77 75.47 102.63 34.96 20.29 68.66 23.52 92.38 25.55 10.87.93 19.44 1.03 27.35.57-7.82-40.02-1.88-68.47 8.34-89.08z" fill="url(#n)"/></g><path d="M1170.6 1655.85l-8.37-15.87 14.66-18.39c3.27-4.1 8.82-5.61 13.71-3.72 25.93 9.97 105 46.99 137.98 137.38 1.73 4.75.31 10.07-3.56 13.32-7.03 5.9-15.49 11.23-15.49 11.23l-138.92-123.95z" fill="url(#o)"/><path d="M1111.89,1866.96l16.33,53.25s2.4,15.68,5.67,21.47c-5.23,8.9-20.3,14.65-20.3,14.65l-38.23-57.78,34.7-31.56,1.84-.04Z" fill="url(#p)"/><path d="M1023.02 1888.61s122.61-148.86 139.21-248.63c101.55 15.49 147.29 139.82 147.29 139.82s-190.41 88.03-249.32 146.2c-23.82-2.37-37.18-37.39-37.18-37.39z" fill="url(#q)"/><path d="M1045.39 1903.21s-8.63-11.86-22.37-14.6c-6.08-1.51 3.5 35.39 37.18 37.39l-14.81-22.79z" fill="url(#r)"/><path d="M1100.68,1902.18s18.82-23.95,24.56-14.43c5.74,9.51,20.52,36.61,6.24,44.05-14.28,7.45-29.77-5.35-30.8-29.62Z" fill="url(#s)"/><path d="M1228.58 1556.63c.79 4.68 4.03 8.79 8.82 10.48 132.06 46.46 137.05 145.26 137.09 146.22.25 7.44 6.51 13.26 13.95 13s13.26-6.51 13-13.94c-.16-4.82-5.86-118.2-155.09-170.7-7.02-2.47-14.72 1.22-17.19 8.24-.79 2.23-.95 4.54-.58 6.71z" fill="url(#t)"/><path d="M1242.45 1504.36c.99 5.81 5.01 10.93 10.97 13.03 164.22 57.78 170.43 180.63 170.48 181.83.31 9.25 8.09 16.49 17.34 16.16s16.49-8.09 16.16-17.34c-.2-5.99-7.29-146.99-192.86-212.27-8.73-3.07-18.31 1.52-21.37 10.25a16.65 16.65 0 0 0-.72 8.35z" fill="url(#u)"/><path d="M973.91 2061.1s111.96-3.6 159.97 27.72c60.98 39.79 21.2-91.58-26.69-142.15 25.92-30.39 33.3-30.88 33.3-30.88s231.46 212.03 84.14 281.93c-147.33 69.9-216.31-6.71-216.31-6.71l-34.4-129.92z" fill="url(#v)"/><path d="M2802.64 3133.05c-16.29 13.17-17.22 22.53-16.69 27.09.85 7.35 6.39 10.2 19.65 24.08 17.93 18.77 15.19 21.28 24.33 28.07 20.16 14.98 48.67 13.99 50.39 8.89 1.21-3.58-11.69-6.49-26.36-23.49-13.54-15.68-18.12-31.22-19.35-35.78-2.23-8.29-2.81-15.46-2.92-20.42l-29.05-8.44z" fill="url(#w)"/><path d="M2857.21,3092.92l-32.08,55.91c-7.73,3.42-15.11,1.69-21.97-8.28l12.52-67.97,41.53,20.33Z" fill="url(#x)"/><path d="M2896.1 2375.86c31.26 52.76 81.96 154.6 92.21 292.3 10.12 135.92-24.16 239.5-38.52 278.13-26.91 72.38-73.71 148.38-100.89 184.61-18.33-7.67-29.13-19.69-47.46-27.36l16.61-62.54 13.36-49.34c13.16-50.34 2.77-88.11 6.39-150.37 4.22-72.61 20.86-64.17 18.36-107.76-3.74-65.09-40.62-80.28-82.96-174.5-28.98-64.49-59.42-132.22-31.45-169.25 35.21-46.61 142.38-17.31 154.34-13.91z" fill="url(#y)"/><path d="M2669.92 3184.18c-9.77 6.22-15.67 20.99-11.22 30.29 4.38 9.14 15.53 6.25 42.63 14.58 29.03 8.92 34.77 17.93 56.17 17.91 8.64 0 24.32-1.5 25.62-7.31.92-4.09-5.73-8.15-27.64-22.87-31.1-20.89-30.77-21.48-37.72-24.68-17.44-8.05-34.95-16.13-47.85-7.93z" fill="url(#z)"/><path d="M2716.35,3139.9l-11.91,54.42c-1.66,2.44-18.63,8.26-30.51,0l4.38-54.42h38.05Z" fill="url(#AA)"/><path class="AK Aa" d="M2741.75 2389.77c35.21-46.61 142.38-17.31 154.34-13.91 12.84 21.68 28.96 51.77 44.21 89.1-37.98-7.47-54.47-.69-62.15 8.32-29.82 34.96 63.54 112.16 44.34 229.3-7.51 45.81-27.1 66.43-23.52 122.39 2.67 41.64 15.6 62.72 24.54 93.2 5.37 18.29 9.52 40.78 9.72 67.96-26.85 59.03-62.14 115.17-84.35 144.76-18.33-7.67-29.13-19.69-47.46-27.36l16.61-62.54 13.36-49.34c13.16-50.34 2.77-88.11 6.39-150.37 4.22-72.61 20.86-64.17 18.36-107.76-3.74-65.09-40.62-80.28-82.96-174.5-28.98-64.49-59.42-132.22-31.45-169.25z" fill="url(#AB)"/><path d="M2812.4 2404.46a2732.84 2732.84 0 0 1-21.54 417.19c-16.26 126.25-39.92 240.16-65.97 340.09-3.6 2.03-16.24 8.58-32.43 5.52-11.46-2.17-19.13-8.11-22.54-11.12 2.84-20.41 5.73-51.3 3.37-88.63-4.06-64.17-19.16-77.24-25.65-143.64-5.69-58.23.3-105.8 3.21-127.86 8.94-67.89 21.07-69.29 21.32-109.95.37-62.61-28.26-85.03-43.99-144.68-10.5-39.79-16.06-99.2 10.33-180.67l173.89 43.75z" fill="url(#AC)"/><path class="AM Aa" d="M2638.51 2360.71l50.91 12.81c-8.87 30.57-17.4 76.46-7.15 128.55 14.15 71.93 50.72 87.71 56.1 152.58 4.84 58.35-22.71 70.26-35.9 148.09-13.52 79.76 6.94 117.28 11.22 183.99 2.93 45.66-1.82 105.39-29.6 178.08-6.86-2.72-11.66-6.47-14.15-8.67 2.84-20.41 5.73-51.3 3.37-88.63-4.06-64.17-19.16-77.24-25.65-143.64-5.69-58.23.3-105.8 3.21-127.86 8.94-67.89 21.07-69.29 21.32-109.95.37-62.61-28.26-85.03-43.99-144.68-10.5-39.79-16.06-99.2 10.33-180.67z" fill="url(#AD)"/><path d="M3189.48 1747.39c.97-9.93 3.71-32.94 7.57-25.2 2.64 5.28 3.8 15.18 4.32 23.19 16.57.9 20.47.09 16.65 18.25-4.11 19.51-5.13 13.69-6.16 23.96s7.51 28.75 7.51 28.75l-21.89 4.79s-6.85-21.91-9.58-32.52c-2.26-8.77-7.75-33.6 1.59-41.22z" fill="url(#AE)"/><path d="M2525.02 2224.42c4.81 58.41 23.74 105.81 63.79 98.74 16.27-2.88 29.24-11.58 39.67-23.86 25.43-29.9 35.41-81.08 39.31-121.17 0 0 .04 0 0-.04 3.2-32.98 2.22-58.49 2.22-58.49l121.04-130.29.12-.12s-192.02 5.13-234.12 52.37c-23.04 25.84-37.83 112.34-32.04 182.86z" fill="url(#AF)"/><path d="M3236.1,1793.62c10.16,22.66,55.25,190.57,8.95,286.59-49.07,101.76-219.55,89.81-275.2,105.11-30.81,8.47-47.75,6.9-67.28,8.73-20.79-130.31,39.95-192.44,66.61-209.18,46.73-29.35,111.65,31.29,168.19,2.83,50.95-25.64,47.21-97.01,48.11-168.97,11.68-4.93,38.93-20.19,50.61-25.11Z" fill="url(#AG)"/><path d="M2556.24 2556.14c12.98 14.13 48.92-38.2 111.97-42.8 33.64-2.46 38.16 11.38 73.2 5.18 38.24-6.74 36.35-23.82 72.17-30.6 26.29-5.01 38.65 2.05 65.23 3.94 6.82.49 4.35-.04 34.5-.62 67.48-1.27 69.33 1.31 74.05-2.88 9.37-8.38 6.98-23.21-10.68-110.16l-7.77-38.03c-3.65-17.99-6.16-30.52-5.79-48.1.53-27.85 8.62-41.73 14.74-75.41 3.12-17 6.29-37.95 9.16-65.76 3.9-38.24 9.78-104.82 7.52-173.29-39.31-1.15-82.19-.45-128.07 3.2-26.12 2.09-51.3 4.97-75.41 8.5-56.97 8.3-108.23 20.04-153.04 32.78.16 35.61 4.03 62.43 7.76 80.88 1.56 7.8 5.15 29.16 7.57 56.68.7 7.39.14 15.65.14 25.92v.57c0 50.89-13.85 66.66-25.56 113.16-2.87 11.5-5.43 24.89-7.93 41.16-10.51 67.57-.14 82.85-18.42 110.37-13.1 19.72-29.71 29.08-40.72 60.34-3.66 10.35-12.67 36.15-4.61 44.98z" fill="url(#AH)"/><path d="M2858.85 1923.24c.03 8.69-1.34 23.72-11.63 35.79-5.33 6.26-11.1 9.42-19.53 13.6-37.52 18.57-53.79 20.55-53.61 24.74.31 7.27 49.7 10.85 90.86 9.47 10.34-.35 49.68-1.94 50.02-9.7.34-7.87-31.03-11.44-37.5-28.76-4.14-11.07 3.72-22.87 11.94-31.76-6.17-7.94-24.36-5.42-30.54-13.37z" fill="url(#AI)"/><path d="M2893.43 1897.7c4.13-11.37-.35-26.72-11.45-33.27-9.55-5.64-20.78-2.68-27.5-.91-19.51 5.14-40.94 21.65-43.97 41.2-1.79 11.6 15.34 27.7 18.17 30.69 3.21 3.38 7.08 3.47 11.23 5.36l29.68 13.95c-.22-3.71-.25-8.39.39-13.72.25-2.05 1.29-10.1 4.37-17.62 6.17-15.06 15.15-14.89 19.07-25.67z" fill="url(#AJ)"/><path d="M2850.56 1951.24s18.59 14.42 42.75 3.39c21.59-9.86 9.75-57.75-7.51-62.26-5.76-1.5-15.62.73-22.62 5.69-4.14 2.93-5.1 5.29-11.95 9.96-6.33 4.31-8.49 4.34-10.04 6.78-1.93 3.05-2.21 8.83 6.53 20.84-5.52-2.41-11.08-2.01-14.16.97-.49.48-1.7 2.03-2.08 3.84-1.37 6.54 6 11.37 19.07 10.8z" fill="url(#AK)"/><path d="M2825.75,1438.13l-503.47-19.67c-17.31-.68-33.34,12.07-33.34,28.48v310.24c0,16.41,15.73,29.32,33.04,28.84l502.95-13.92c14.2-.39,27.06-12.67,27.06-27.42v-278.84c0-14.75-12.05-27.16-26.25-27.71Z" fill="url(#AL)"/><path d="M2586.76 2111.13a6.19 6.19 0 0 0 6.19-6.19v-634.71a6.19 6.19 0 1 0-12.38 0v634.71a6.19 6.19 0 0 0 6.19 6.19z" fill="#26264f"/><path d="M2862.83 1465.86v278.81c0 14.75-11.31 27.03-25.52 27.44L2361 1785.34l-25.67.7c-17.34.45-31.96-12.45-31.96-28.83v-310.28c0-16.39 14.66-29.16 31.99-28.46l426.68 16.72 75.12 2.96c14.21.53 25.66 12.94 25.66 27.73z" fill="url(#AM)"/><path d="M2597.48 1639.45l-21.71-.52c-6.05-.14-11.06-5.32-11.37-11.41l-7.95-152.94c-.16-3.15.97-5.75 3.13-7.88s5.16-2.82 8.29-2.6l37.39 2.6c3.06.21 5.99 1.23 8.09 3.62s3.2 5.26 3.04 8.34l-7.73 150.16c-.31 6-5.21 10.77-11.18 10.63zm-33.5 37.36c5.42-5.18 13.05-7.68 22.86-7.52 10.11.16 17.77 2.83 23.02 7.99 5.23 5.14 7.84 12.66 7.84 22.56s-2.67 16.93-8.02 22.17c-5.36 5.25-12.97 7.88-22.85 7.88s-17.29-2.71-22.77-8.16c-5.49-5.46-8.25-12.93-8.25-22.39s2.72-17.34 8.16-22.53z" fill="#fff"/><path class="AX Aa" d="M2862.83 1465.86v278.81c0 14.75-11.31 27.03-25.52 27.44L2361 1785.34c22.55-40.46 91.76-28.92 149.92-111.48 16.59-23.54 35.02-36.93 53.66-44.69 14.99-6.24 30.12-8.83 44.57-10.1 51.1-4.56 93.45 7.47 89.67-67.32-3.33-66.05 31.14-99.65 63.5-116.57l74.97 2.96c14.21.53 25.52 12.94 25.52 27.73z" fill="url(#AN)"/><path d="M2565.93 2111.13s-8.33-28.87-8.33-45.36 45.83-16.5 54.16-16.5 4.17 28.87-12.5 30.93-12.5 26.8-12.5 26.8l-20.83 4.12z" fill="url(#AO)"/><path class="AZ Aa" d="M2560.92 2511.16c-3.66 10.35-12.74 36.15-4.69 44.98 12.98 14.13 48.92-38.2 111.97-42.8 33.64-2.46 38.16 11.38 73.2 5.18 38.24-6.74 36.35-23.82 72.17-30.6 26.29-5.01 38.65 2.05 65.23 3.94 6.82.49 4.35-.04 34.5-.62 67.48-1.27 69.33 1.31 74.05-2.88 9.37-8.38 6.98-23.21-10.68-110.16-21.77 4.03-49.7 22.92-78.37 48.76-52.33 47.24-74.96 21.24-112.59-21.19-37.66-42.47-70.52-8.21-102.03-29.45-31.46-21.24-3.41-71.88 27.4-119.12s-12.32-115.71-41.77-80.79c-.49.62-.99 1.15-1.52 1.68.04.04 0 .04 0 .04-5.26 5.79-9.53 7.93-13.18 7.43-15.9-1.89-20.99-51.8-48.26-65.97 2.96 10.06 3.78 20.78 4.81 31.18 2.63 26.99 3.45 54.01 4.27 81.08.49 16.68 8.58 56.85-11.34 64.57-25.96 10.02-42.63-15.44-52.7-34.67-7.11-13.51-16.23-25.92-26.37-37.34 4.81 58.41 23.74 105.81 63.79 98.74 16.27-2.88 29.24-11.58 39.67-23.86-2.87 11.5-5.71 24.89-8.21 41.16-10.51 67.57-.28 82.85-18.56 110.37-13.1 19.72-29.78 29.08-40.79 60.34z" fill="url(#AP)"/></g></svg>